<?xml version="1.0" standalone="no"?><!DOCTYPE svg PUBLIC "-//W3C//DTD SVG 1.1//EN" "http://www.w3.org/Graphics/SVG/1.1/DTD/svg11.dtd"><svg t="1635517047068" class="icon" viewBox="0 0 1024 1024" version="1.1" xmlns="http://www.w3.org/2000/svg" p-id="1508" xmlns:xlink="http://www.w3.org/1999/xlink" width="200" height="200"><defs><style type="text/css"></style></defs><path d="M870 154c-13.1-13.1-30.4-21.8-49.8-24L527.8 97.5c-25.2-2.8-50.3 6-68.3 24l-326 326c-48.7 48.7-48.7 128.5 0 177.2l265.8 265.8c48.7 48.7 128.5 48.7 177.2 0l326-326c17.9-17.9 26.8-43.1 24-68.3L894 203.8c-2.2-19.4-10.9-36.8-24-49.8z m3.2 381.1l-326 326c-15.7 15.7-36.8 24.4-59.3 24.4s-43.5-8.7-59.3-24.4L162.9 595.3c-15.7-15.7-24.4-36.8-24.4-59.3s8.7-43.5 24.4-59.2l326-326c7.9-7.9 18.5-12.3 29.7-12.3 1.5 0 3.1 0.1 4.6 0.3l292.4 32.5c9.6 1.1 18.2 5.2 25 12 6.8 6.8 11 15.5 12.1 25.1l32.5 292.3c1.5 12.8-2.9 25.3-12 34.4z" p-id="1509"></path><path d="M723.3 217.7c-45.8 0-83 37.2-83 83s37.2 83 83 83 83-37.2 83-83c0-45.9-37.1-83-83-83z m0 124.5c-22.9 0-41.5-18.6-41.5-41.5s18.6-41.5 41.5-41.5 41.5 18.6 41.5 41.5-18.6 41.5-41.5 41.5z" p-id="1510"></path></svg>